<?xml version="1.0" encoding="UTF-8"?><svg xmlns="http://www.w3.org/2000/svg" xmlns:xlink="http://www.w3.org/1999/xlink" viewBox="0 0 212.6 212.6"><defs><style>.cls-1{clip-path:url(#clippath);}.cls-2{fill:none;}.cls-2,.cls-3,.cls-4,.cls-5{stroke-width:0px;}.cls-6,.cls-7,.cls-8{stroke:#000;stroke-linecap:round;stroke-linejoin:round;stroke-width:5.67px;}.cls-6,.cls-4{fill:#be80ff;}.cls-7{fill:#7f00ff;}.cls-5{fill:#ffffff00;}</style><clipPath id="clippath"><circle class="cls-2" cx="95.69" cy="106.88" r="72.42"/></clipPath></defs><g id="_로고_시안_1차"><rect class="cls-5" width="212.6" height="212.6"/></g><g id="_로고_시안_2차"><g class="cls-1"><circle class="cls-4" cx="95.69" cy="106.76" r="72.3"/><path class="cls-6" d="m21.64,87.52s9.53,16.92,15.52,21.82c0,0,2.78-.9,2.76-3.31-.04-4.31,1.6-9.75,10.31-7.58,9.52,2.38,10.35,8.71,8.45,14.17-.95,2.74,2.39,5.86,3.53,9.79h17.97s8.71,43.62,29.4,55.57c0,0-41.38,21.21-70.78-20.17-29.4-41.38-17.15-70.28-17.15-70.28Z"/><path class="cls-6" d="m168.11,80.14s13.73,31.92,3.46,62.95c-10.27,31.04-28.24-5.19-26.88-26.01,1.36-20.82,15.52-43.14,23.42-36.95Z"/><path class="cls-6" d="m80.62,120.06s-.54,12.52,4.36,21.78c0,0-.44,8.05-5.51,8.11-4.3.05-8.41,5.59-6.47,9.85,2.72,5.99,9.8,10.35,15.25,9.8,2.98-.3,7.87.48,12.12.87,0,0,8.86,4.85,22.18,6.75,0,0,37.42-7.62,48.93-34.85l.08-13.61s-6.53,15.25-9.8,6.53l-7.08-20.15s-71.57,5.34-74.05,4.9Z"/><path class="cls-8" d="m113.65,39.74s0,19.84-12.04,21.25c0,0-10,2.06-13.82-.12-4.07-2.32-11.45-3.55-13.61,5.44-1.62,6.72,3.72,10.73,6.88,10.97,9.21.71,4.55,10.27,2.92,16.8,0,0-5.31,12.52-3.27,26.68l19.48,2.57s18.42,3.54,10.63,12.75c-3.27,3.87-7.01,10.63,5.29,12.99,14.16,2.72,11.74-11.08,8.88-14.41-3.27-3.81,12.36-6.82,12.36-6.82,0,0,7.48-4.51,19.52-1.68,0,0-1.3-19.48,2.26-25.55,0,0,2.72-4.97,14.7-2.72,0,0-6.96-22.29-11.43-32.12-2.34-5.13-14.16,9.8-24.5,3.27-8.94-5.65,4.91-17.72.54-20.15-4.97-2.76-17.81-7.79-24.78-9.15Z"/><path class="cls-3" d="m95.42,39.9c36.99,0,67.08,30.09,67.08,67.08s-30.09,67.08-67.08,67.08S28.33,143.97,28.33,106.98,58.43,39.9,95.42,39.9m0-5.7c-40.2,0-72.79,32.59-72.79,72.79s32.59,72.79,72.79,72.79,72.79-32.59,72.79-72.79-32.59-72.79-72.79-72.79h0Z"/></g><path class="cls-7" d="m121.84,37.66c-1.55,2.73-3.21,7.05-4.43,11.31-1.3,4.51-3.82,7.46-8.27,8.95-2.13.71-5.67,0-8.5-2.13-3.75-2.81-12.04-3.54-15.58,4.25-3.93,8.65,2.42,13.91,8.06,14.41s7.52,1.18,8.23,2.6c1.14,2.28.91,4.53-.17,8.58-.91,3.39-9.03,19.05,5.4,24.25l8.94,2.6s9.92,1.42,4.96,9.21c-2.74,4.31-4.96,15.58,5.67,18.42,7.8,2.08,14.03-4.86,13.46-13.46-.71-10.63,9.48-6.85,9.48-6.85l9.65,3.3c7.08,2.13,11.33-3.54,13.46-8.5,1.23-2.86,3.53-8.29,3.81-9.68,1.42-7.08-3.13-10.48-8.5-9.92-4.52.47-9.88-2.96-7.79-9.21,1.99-5.96,8.59-5.74,12.04-1.42,2.83,3.54,8.23,2.6,10.63-1.42,1.85-3.1,5.58-12.73,6.38-15.58,1-3.6.82-6.22-1.42-9.21-2.13-2.83-6.54-5.37-9.21-7.08-9.92-6.38-17.59-3.43-17,2.13.43,4.06-2.05,13.04-10.19,8.97-7.08-3.54-1.64-10.87.71-12.75,3.54-2.83,3.86-7.74-2.13-11.33-3.54-2.13-9.72-3.51-14.17-4.25-8.5-1.42-11.33,0-13.51,3.82Z"/></g></svg>